HIERARCHY
ROOT Hips
{
	OFFSET 0.00 0.00 0.00
	CHANNELS 6 Xposition Yposition Zposition Xrotation Yrotation Zrotation
	JOINT Spine
	{
		OFFSET 0.00000 1.15266 1.72900
		CHANNELS 3 Xrotation Yrotation Zrotation
		JOINT Spine1
		{
			OFFSET 0.00000 0.40032 2.27031
			CHANNELS 3 Xrotation Yrotation Zrotation
			JOINT Spine2
			{
				OFFSET 0.00000 0.20092 2.29656
				CHANNELS 3 Xrotation Yrotation Zrotation
				JOINT Spine3
				{
					OFFSET 0.00000 0.00000 2.30533
					CHANNELS 3 Xrotation Yrotation Zrotation
					JOINT Neck
					{
						OFFSET 0.00000 -0.86449 6.05149
						CHANNELS 3 Xrotation Yrotation Zrotation
						JOINT Head
						{
							OFFSET 0.00000 -0.55043 3.12167
							CHANNELS 3 Xrotation Yrotation Zrotation
							End Site
							{
								OFFSET 0.00000 0.00000 3.73175
							}
						}
					}
					JOINT RightShoulder
					{
						OFFSET -0.78828 -1.31380 4.25672
						CHANNELS 3 Xrotation Yrotation Zrotation
						JOINT RightArm
						{
							OFFSET -3.91513 0.00000 0.00000
							CHANNELS 3 Xrotation Yrotation Zrotation
							JOINT RightForeArm
							{
								OFFSET -6.91491 0.00000 0.00000
								CHANNELS 3 Xrotation Yrotation Zrotation
								JOINT RightHand
								{
									OFFSET -6.09622 0.00000 0.00000
									CHANNELS 3 Xrotation Yrotation Zrotation
									JOINT RightHandEnd
									{
										OFFSET -1.74995 0.00000 0.00000
										CHANNELS 3 Xrotation Yrotation Zrotation
										End Site
										{
											OFFSET -1.74995 0.00000 0.00000
										}
									}
									JOINT RightHandThumb1
									{
										OFFSET -0.69998 -1.16663 -0.46665
										CHANNELS 3 Yrotation Xrotation Zrotation
										End Site
										{
											OFFSET -1.69032 -0.45292 0.00000
										}
									}
								}
							}
						}
					}
					JOINT LeftShoulder
					{
						OFFSET 0.78828 -1.31380 4.25672
						CHANNELS 3 Xrotation Yrotation Zrotation
						JOINT LeftArm
						{
							OFFSET 3.91513 0.00000 0.00000
							CHANNELS 3 Xrotation Yrotation Zrotation
							JOINT LeftForeArm
							{
								OFFSET 6.91491 0.00000 0.00000
								CHANNELS 3 Xrotation Yrotation Zrotation
								JOINT LeftHand
								{
									OFFSET 6.09622 0.00000 0.00000
									CHANNELS 3 Xrotation Yrotation Zrotation
									JOINT LeftHandEnd
									{
										OFFSET 1.74995 0.00000 0.00000
										CHANNELS 3 Xrotation Yrotation Zrotation
										End Site
										{
											OFFSET 1.74995 0.00000 0.00000
										}
									}
									JOINT LeftHandThumb1
									{
										OFFSET 0.69998 -1.16663 -0.46665
										CHANNELS 3 Yrotation Xrotation Zrotation
										End Site
										{
											OFFSET 1.69032 -0.45292 0.00000
										}
									}
								}
							}
						}
					}
				}
			}
		}
	}
	JOINT RightUpLeg
	{
		OFFSET -2.33857 0.00000 -0.68318
		CHANNELS 3 Xrotation Yrotation Zrotation
		JOINT RightLeg
		{
			OFFSET 0.00000 0.00000 -10.74496
			CHANNELS 3 Xrotation Yrotation Zrotation
			JOINT RightFoot
			{
				OFFSET 0.00000 0.00000 -10.93085
				CHANNELS 3 Xrotation Yrotation Zrotation
				JOINT RightToeBase
				{
					OFFSET 0.00000 -4.08727 -1.48765
					CHANNELS 3 Xrotation Yrotation Zrotation
					End Site
					{
						OFFSET 0.00000 -1.89187 -0.00000
					}
				}
			}
		}
	}
	JOINT LeftUpLeg
	{
		OFFSET 2.33857 0.00000 -0.68318
		CHANNELS 3 Xrotation Yrotation Zrotation
		JOINT LeftLeg
		{
			OFFSET 0.00000 0.00000 -10.74496
			CHANNELS 3 Xrotation Yrotation Zrotation
			JOINT LeftFoot
			{
				OFFSET 0.00000 0.00000 -10.93085
				CHANNELS 3 Xrotation Yrotation Zrotation
				JOINT LeftToeBase
				{
					OFFSET 0.00000 -4.08727 -1.48765
					CHANNELS 3 Xrotation Yrotation Zrotation
					End Site
					{
						OFFSET 0.00000 -1.89187 -0.00000
					}
				}
			}
		}
	}
}
MOTION
Frames: 9
Frame Time: 0.008342
 -3.2872 83.5848 24.6432 -5.0413 4.4294 73.0706 -1.8789 8.2444 0.4640 -2.1590 0.2631 -0.1158 13.7253 0.5753 -3.8377 -3.0758 0.5815 -1.7792 -16.6711 7.6512 3.0379 8.0563 5.2371 1.0034 -5.2929 -13.2552 8.2646 -25.8503 -1.8508 22.8065 0.0000 0.0000 33.4720 -12.0684 1.7302 5.1959 -0.0000 0.0000 -0.0000 0.0000 -0.0000 -0.0000 -3.8492 9.9439 -8.7366 10.2316 11.6538 -72.6334 -0.0000 0.0000 2.0880 1.5298 -0.5841 -7.6624 -0.0000 -0.0000 -0.0000 0.0000 0.0000 -0.0000 -20.2158 15.7981 -5.6662 15.9171 0.0000 0.0000 5.8598 1.8806 6.3068 -2.3097 0.0000 -0.0000 -1.9812 -8.1820 24.3866 4.3908 0.0000 0.0000 -6.7582 1.3645 6.6428 -4.8455 0.0000 -0.0000
 -3.2725 83.5972 24.6354 -4.9165 4.3987 71.8925 -1.9160 8.2492 0.4931 -2.1990 0.2492 -0.1187 13.7459 0.6279 -3.9175 -3.1045 0.6225 -1.8175 -16.7154 7.9375 3.3174 7.9687 5.6179 1.3486 -5.5972 -13.2379 8.1537 -25.9638 -1.8382 23.1051 0.0000 0.0000 34.0580 -11.5497 1.7675 5.4137 0.0000 -0.0000 0.0000 -0.0000 -0.0000 -0.0000 -3.8330 9.8475 -8.7740 10.3884 11.7155 -73.0444 -0.0000 0.0000 2.1444 1.6891 -0.4331 -7.5144 0.0000 -0.0000 0.0000 0.0000 -0.0000 0.0000 -20.1081 15.9183 -6.3016 15.7147 0.0000 0.0000 5.7051 2.1208 6.7533 -2.5697 0.0000 -0.0000 -1.8469 -8.0956 25.1600 4.7489 0.0000 0.0000 -7.0776 1.2302 7.0470 -4.7556 0.0000 -0.0000
 -3.2572 83.6101 24.6269 -4.7615 4.3797 70.7070 -1.9803 8.2387 0.5272 -2.2377 0.2199 -0.1246 13.7857 0.7340 -4.0007 -3.1341 0.6581 -1.8462 -16.7952 8.2380 3.5947 7.8616 6.0036 1.6947 -5.9051 -13.2411 8.0374 -26.1050 -1.7981 23.3929 0.0000 0.0000 34.6828 -11.0373 1.8047 5.6197 0.0000 0.0000 0.0000 -0.0000 -0.0000 0.0000 -3.8296 9.7338 -8.8260 10.5405 11.8345 -73.4265 -0.0000 0.0000 2.2169 1.7915 -0.3202 -7.3650 0.0000 0.0000 0.0000 0.0000 0.0000 0.0000 -20.0336 16.0356 -6.8692 15.5404 0.0000 0.0000 5.5628 2.3402 7.1486 -2.8033 0.0000 -0.0000 -1.7203 -7.9719 25.9045 5.0699 0.0000 0.0000 -7.3827 1.0884 7.4882 -4.6587 0.0000 -0.0000
 -3.2410 83.6242 24.6175 -4.5696 4.3636 69.5094 -2.0541 8.2270 0.5595 -2.2891 0.1944 -0.1284 13.8446 0.8362 -4.0713 -3.1684 0.7059 -1.8762 -16.9121 8.5801 3.8814 7.7404 6.3824 2.0421 -6.2023 -13.2461 7.9324 -26.2819 -1.7274 23.6632 0.0000 0.0000 35.3488 -10.5438 1.8447 5.8157 -0.0000 -0.0000 0.0000 0.0000 -0.0000 0.0000 -3.8374 9.6254 -8.8830 10.6889 11.9959 -73.7785 -0.0000 0.0000 2.3052 1.8386 -0.2444 -7.2056 0.0000 -0.0000 0.0000 -0.0000 0.0000 -0.0000 -19.9939 16.1602 -7.3815 15.4000 0.0000 0.0000 5.4556 2.5089 7.4689 -2.9955 0.0000 -0.0000 -1.5922 -7.7970 26.6050 5.3439 0.0000 0.0000 -7.6670 0.9402 7.9856 -4.5636 0.0000 -0.0000
 -3.2238 83.6397 24.6073 -4.3463 4.3521 68.3007 -2.1328 8.2015 0.5885 -2.3531 0.1831 -0.1316 13.9155 0.9229 -4.1297 -3.2075 0.7753 -1.9092 -17.0689 8.9598 4.1846 7.6130 6.7537 2.3873 -6.4845 -13.2517 7.8474 -26.4943 -1.6283 23.9099 0.0000 0.0000 36.0587 -10.0749 1.8906 6.0017 0.0000 -0.0000 -0.0000 -0.0000 -0.0000 0.0000 -3.8486 9.5246 -8.9349 10.8320 12.1748 -74.1114 -0.0000 0.0000 2.4208 1.8292 -0.1967 -7.0350 -0.0000 0.0000 -0.0000 -0.0000 -0.0000 0.0000 -19.9888 16.2857 -7.8630 15.2891 0.0000 0.0000 5.4075 2.6030 7.6899 -3.1361 0.0000 -0.0000 -1.4667 -7.5770 27.2549 5.5736 0.0000 0.0000 -7.9298 0.7911 8.5432 -4.4796 0.0000 -0.0000
 -3.2056 83.6565 24.5964 -4.0942 4.3456 67.0784 -2.2231 8.1518 0.6115 -2.4139 0.1588 -0.1357 13.9895 1.0488 -4.1825 -3.2542 0.8499 -1.9410 -17.2636 9.3747 4.5025 7.4842 7.1108 2.7301 -6.7432 -13.2620 7.7828 -26.7428 -1.4976 24.1365 0.0000 0.0000 36.8085 -9.6382 1.9454 6.1823 0.0000 -0.0000 -0.0000 0.0000 -0.0000 -0.0000 -3.8750 9.4193 -8.9831 10.9844 12.3820 -74.4210 -0.0000 0.0000 2.5594 1.7852 -0.1783 -6.8455 0.0000 0.0000 -0.0000 -0.0000 -0.0000 -0.0000 -20.0194 16.4076 -8.3426 15.2051 0.0000 0.0000 5.4330 2.6086 7.8005 -3.2186 0.0000 -0.0000 -1.3438 -7.3146 27.8550 5.7565 0.0000 0.0000 -8.1684 0.6471 9.1609 -4.4138 0.0000 -0.0000
 -3.1863 83.6754 24.5846 -3.8052 4.3365 65.8396 -2.3093 8.0850 0.6302 -2.4807 0.1522 -0.1388 14.0599 1.1634 -4.2298 -3.3101 0.9485 -1.9711 -17.4952 9.8212 4.8394 7.3585 7.4543 3.0691 -6.9722 -13.2695 7.7441 -27.0249 -1.3369 24.3446 0.0000 0.0000 37.5933 -9.2370 2.0151 6.3592 0.0000 -0.0000 0.0000 -0.0000 -0.0000 -0.0000 -3.8984 9.3219 -9.0216 11.1323 12.5794 -74.7139 -0.0000 0.0000 2.7275 1.7101 -0.1712 -6.6358 -0.0000 -0.0000 -0.0000 -0.0000 0.0000 -0.0000 -20.0919 16.5374 -8.8462 15.1555 0.0000 0.0000 5.5314 2.5207 7.8009 -3.2419 0.0000 -0.0000 -1.2220 -6.9973 28.4038 5.8918 0.0000 0.0000 -8.3796 0.5093 9.8415 -4.3682 0.0000 -0.0000
 -3.1661 83.6952 24.5720 -3.4942 4.3248 64.5869 -2.3927 7.9902 0.6376 -2.5349 0.1286 -0.1375 14.1138 1.3249 -4.2642 -3.3749 1.0531 -2.0176 -17.7597 10.2828 5.1963 7.2380 7.7818 3.4019 -7.1877 -13.2624 7.7347 -27.3323 -1.1800 24.5086 -0.0000 0.0000 38.4275 -8.8530 2.1024 6.5252 0.0000 0.0000 0.0000 0.0000 -0.0000 -0.0000 -3.9396 9.2135 -9.0469 11.2961 12.7889 -74.9887 -0.0000 0.0000 2.9245 1.6449 -0.1762 -6.4113 -0.0000 -0.0000 -0.0000 -0.0000 -0.0000 0.0000 -20.1967 16.6570 -9.4024 15.1335 0.0000 0.0000 5.6997 2.3487 7.6857 -3.2103 0.0000 -0.0000 -1.1056 -6.6470 28.9060 5.9974 0.0000 0.0000 -8.5724 0.3854 10.5760 -4.3427 0.0000 -0.0000
 -3.1450 83.7153 24.5587 -3.1747 4.3013 63.3298 -2.4530 7.8693 0.6390 -2.5776 0.0819 -0.1477 14.1441 1.5252 -4.3095 -3.4487 1.1768 -2.0530 -18.0536 10.7397 5.5617 7.1215 8.0984 3.7320 -7.3761 -13.2614 7.7354 -27.6636 -1.0124 24.6675 -0.0000 0.0000 39.2831 -8.5018 2.2108 6.6941 0.0000 -0.0000 0.0000 -0.0000 0.0000 0.0000 -3.9605 9.0930 -9.0622 11.4466 12.9515 -75.2543 -0.0000 0.0000 3.1485 1.5633 -0.1625 -6.1647 0.0000 0.0000 -0.0000 -0.0000 0.0000 0.0000 -20.3116 16.7573 -10.0387 15.1300 0.0000 0.0000 5.9223 2.1110 7.4558 -3.1290 0.0000 -0.0000 -0.9890 -6.2777 29.3617 6.0884 0.0000 0.0000 -8.7540 0.2792 11.3538 -4.3344 0.0000 -0.0000
